PathFileType	4	(X/Y/Z)	C:/Users/beibeiliu/ov580/test_trc/User1\sequence.3_training_dense_left.trc
DataRate	CameraRate	NumFrames	NumMarkers	Units	OrigDataRate	OrigDataStartFrame	OrigNumFrames
120	120	10	19	mm	120	33	64
Frame#	Time	ThumbCMC			ThumbMCP			ThumbIP			ThumbTip			IndexMCP			IndexPIP			IndexTip			MiddleMCP			MiddlePIP			MiddleTip			RingMCP			RingPIP			RingTip			PinkyMCP			PinkyPIP			PinkyTip			BackHand1			BackHand2			BackHand3	
		X0	Y0	Z0	X1	Y1	Z1	X2	Y2	Z2	X3	Y3	Z3	X4	Y4	Z4	X5	Y5	Z5	X6	Y6	Z6	X7	Y7	Z7	X8	Y8	Z8	X9	Y9	Z9	X10	Y10	Z10	X11	Y11	Z11	X12	Y12	Z12	X13	Y13	Z13	X14	Y14	Z14	X15	Y15	Z15	X16	Y16	Z16	X17	Y17	Z17	X18	Y18	Z18	
32	0.266667	-154.786	77.2426	86.7148	-122.857	91.0944	71.5171	-98.4832	86.0659	54.0531	-78.9103	63.4247	46.8784	-121.093	60.1192	19.9803	-92.1747	60.8318	37.7336	-117.617	60.8958	63.3522	-110.816	31.0368	25.3097	-84.5882	43.044	46.4051	-111.272	49.7103	75.2394	-103.839	16.5392	40.435	-87.0267	29.7233	65.3928	-115.773	33.4791	83.8919	-103.414	-0.837185	62.8964	-97.4947	21.985	81.5199	-128.14	27.9316	93.5426	-160.532	5.94328	66.0707	-176.474	14.4736	100.857	-174.372	40.2598	75.2899	
33	0.275	-173.531	75.3191	78.2339	-146.427	92.9972	55.9704	-121.581	89.4354	35.1678	-99.0313	76.1809	31.85	-134.613	49.249	12.012	-107.445	61.5977	25.6562	-130.886	63.1407	53.3235	-118.651	31.7726	18.3038	-96.53	49.9585	35.5064	-118.423	54.9228	66.5132	-107.206	21.2384	36.3854	-94.9877	39.9838	57.5727	-123.137	38.3046	79.1823	-99.8861	8.45322	59.2559	-101.09	31.1829	75.8114	-127.733	32.8393	93.2289	-160.857	2.48841	66.7005	-174.452	7.58943	98.5586	-182.757	30.061	71.5148	
34	0.283333	-184.427	66.7252	73.2228	-160.444	86.0649	48.3391	-141.365	81.2093	26.871	-118.301	65.0445	16.3617	-157.207	40.4919	2.87987	-126.776	52.4719	15.0567	-142.281	54.4537	43.0549	-138.71	21.2118	7.04937	-114.506	40.3089	23.7758	-135.536	47.3193	56.7809	-125.825	7.86978	25.9268	-111.933	34.5514	44.2958	-135.965	33.081	69.8857	-121.103	-4.74495	47.9672	-114.054	23.3059	63.2949	-140.922	28.1512	80.4055	-176.193	-4.72779	62.6687	-185.924	2.26783	99.6252	-195.658	23.0794	69.0072	
35	0.291667	-184.9	66.5991	72.5674	-160.195	74.4261	42	-146.089	66.8957	21.0479	-129.149	46.2687	7.92504	-174.496	39.3913	-4.44474	-141.281	44.6576	4.85452	-152.603	46.3431	35.2568	-161.088	10.0417	-0.244908	-133.189	26.7414	11.9956	-144.359	38.6882	46.9276	-151.23	-3.93546	16.2692	-129.137	17.3178	34.3641	-147.715	24.2859	59.3122	-144.384	-16.0917	34.4463	-132.871	6.65299	51.0592	-150.896	17.2712	71.7299	-200.308	-7.94194	55.4847	-205.048	-0.414784	93.1952	-208.893	28.2899	68.223	
36	0.3	-173.201	69.243	76.2972	-147.944	67.6268	46.2585	-137.767	58.7168	23.123	-128.216	35.8558	1.29055	-178.267	49.8834	-3.18362	-149.165	38.0192	-0.943528	-155.732	39.9349	34.8428	-180.704	23.4924	-3.76157	-146.598	22.0342	3.46291	-149.707	26.0017	43.2325	-177.265	2.12162	9.48056	-147.212	6.29433	23.5828	-160.275	19.9663	56.5294	-174.349	-12.6982	24.8105	-154.424	-2.17302	40.2597	-164.704	12.1322	67.6451	-218.94	10.0465	54.9952	-220.181	15.4981	89.1345	-212.08	45.9528	69.4846	
37	0.308333	-156.775	65.8221	82.6844	-131.352	58.5239	53.5175	-123.938	48.8515	31.0547	-123.421	28.777	5.78607	-161.762	62.9181	1.44896	-141.466	40.0844	5.90926	-147.005	42.6244	40.4604	-180.067	41.7771	0.0750155	-150.433	22.374	5.7588	-152.982	22.0631	44.0182	-185.669	18.8305	7.75505	-155.041	8.88012	24.7873	-166.564	15.5109	58.2651	-196.367	2.73521	20.0169	-169.248	-4.09191	35.426	-167.887	12.4461	62.1226	-218.31	41.8462	57.6821	-223.514	35.3874	91.2329	-198.444	68.5606	74.3478	
38	0.316667	-140.645	55.4024	93.9063	-111.064	41.6312	68.8668	-104.811	33.2118	41.3791	-112.687	16.7888	19.9922	-137.614	64.0646	15.531	-121.746	33.7833	16.962	-134.498	34.8041	50.5344	-155.761	50.0414	7.81546	-138.658	18.6332	14.3202	-146.463	19.0757	54.4825	-169.565	28.8407	11.8949	-151.228	5.6238	28.2346	-159.379	13.0949	60.4283	-186.462	14.4799	22.2984	-168.999	-2.67765	37.9482	-169.377	10.8785	71.6342	-203.876	53.3682	60.1839	-207.311	51.3296	94.462	-176.344	73.4796	84.0783	
39	0.325	-127.306	47.6227	105.328	-100.485	31.4537	85.6183	-87.6679	21.7047	56.1492	-95.093	4.85022	30.0503	-110.337	49.2342	25.5257	-101.828	22.0043	30.6148	-115.799	30.2588	65.5047	-132.476	35.5653	15.497	-118.279	7.60668	30.8034	-130.642	11.5583	64.3703	-146.683	21.9076	21.3712	-134.312	-2.37258	42.2756	-148.673	10.0342	72.0871	-165.368	6.14901	29.5651	-151.882	-7.16414	51.1314	-158.436	10.7573	78.5679	-182.732	53.8663	63.6308	-194.807	47.849	95.9019	-158.289	67.3426	92.3687	
40	0.333333	-116.81	57.1172	111.901	-87.5587	43.4679	94.1522	-71.0493	33.2818	71.2889	-69.7899	10.387	48.8963	-94.7063	47.4669	33.9908	-81.8595	24.6493	49.1141	-104.469	32.9495	74.7481	-111.087	27.8422	26.4961	-92.853	7.30213	46.4334	-109.5	19.8892	80.027	-123.734	8.21701	32.3919	-107.071	-4.599	58.7948	-128.365	13.7991	82.669	-139.083	-4.15103	42.1659	-125.759	-11.8114	68.7798	-137.4	12.4916	89.4099	-171.804	36.0821	59.8146	-185.473	37.0193	95.8053	-157.208	62.5413	89.2631	
41	0.341667	-129.167	76.2064	104.18	-94.7449	73.206	93.8066	-69.5649	63.7811	70.3965	-61.503	38.0453	58.3987	-96.0236	58.1342	34.464	-72.8285	45.7223	51.6574	-99.7133	47.6007	76.0043	-97.1658	28.3899	31.9311	-74.5514	26.496	57.8282	-102.21	32.1882	86.1168	-101.617	6.86106	43.9668	-84.1057	14.3942	72.205	-112.352	25.1954	89.1688	-108.283	-10.3261	60.9437	-99.3884	2.92991	86.8532	-127.726	19.5706	99.0895	-159.193	18.3348	64.9826	-174.989	23.6643	97.6359	-161.576	55.8563	83.9352	
